<svg xmlns="http://www.w3.org/2000/svg" width="29" height="15" viewBox="0 0 29 15">
  <g id="icon.mail" transform="translate(-268.5 -52)">
    <path id="Subtraction_1" data-name="Subtraction 1" d="M26,13H4a1,1,0,0,1-1-1V1.793a1.127,1.127,0,0,0,.1.065L14.486,8.691a1,1,0,0,0,1.029,0L26.9,1.858a1.114,1.114,0,0,0,.1-.064V12A1,1,0,0,1,26,13Z" transform="translate(268 54)" fill="#bebebe"/>
    <path id="Polygon_1" data-name="Polygon 1" d="M13.973.327a1,1,0,0,1,1.055,0L26.02,7.15A1,1,0,0,1,25.493,9H3.507A1,1,0,0,1,2.98,7.15Z" transform="translate(297.5 61) rotate(180)" fill="#bebebe"/>
  </g>
</svg>
